<svg xmlns="http://www.w3.org/2000/svg" width="15" height="15" viewBox="0 0 15 15">
  <g id="Group_2648" data-name="Group 2648" transform="translate(-160 -385)">
    <g id="Component_18_450" data-name="Component 18 – 450" transform="translate(160 385)">
      <g id="Ellipse_32" data-name="Ellipse 32" fill="#fff" stroke="#000" stroke-width="0.5">
        <circle cx="7.5" cy="7.5" r="7.5" stroke="none"/>
        <circle cx="7.5" cy="7.5" r="7.25" fill="none"/>
      </g>
    </g>
    <path id="Path_484" data-name="Path 484" d="M5.5,0A5.5,5.5,0,1,0,11,5.5,5.506,5.506,0,0,0,5.5,0ZM7.2,6.551a.458.458,0,1,1-.648.648L5.5,6.148,4.449,7.2A.458.458,0,1,1,3.8,6.551L4.852,5.5,3.8,4.449A.458.458,0,0,1,4.449,3.8L5.5,4.852,6.551,3.8a.458.458,0,0,1,.648.648L6.148,5.5,7.2,6.551Z" transform="translate(162 387)" fill="red"/>
  </g>
</svg>
