<svg xmlns="http://www.w3.org/2000/svg" width="30" height="30" viewBox="0 0 30 30">
  <path id="Path_114" data-name="Path 114" d="M15.346,10.091a5.969,5.969,0,1,0,5.979,5.969A5.978,5.978,0,0,0,15.346,10.091Zm4.211,3.776L15.6,15.915a.174.174,0,0,1-.255-.155V11.31a.181.181,0,0,1,.182-.172,4.922,4.922,0,0,1,4.1,2.485A.18.18,0,0,1,19.558,13.867Zm-4.211-3.776a5.969,5.969,0,1,0,5.979,5.969A5.978,5.978,0,0,0,15.346,10.091Zm4.211,3.776L15.6,15.915a.174.174,0,0,1-.255-.155V11.31a.181.181,0,0,1,.182-.172,4.922,4.922,0,0,1,4.1,2.485A.18.18,0,0,1,19.558,13.867ZM26.05,0H3.95A3.944,3.944,0,0,0,0,3.94V26.051A3.952,3.952,0,0,0,3.95,30h22.1A3.952,3.952,0,0,0,30,26.051V3.95A3.953,3.953,0,0,0,26.05,0ZM12.485,5.669a1.3,1.3,0,0,1,1.3-1.3h3.036a1.3,1.3,0,0,1,1.3,1.3V6.7a.176.176,0,0,1-.219.172,9.638,9.638,0,0,0-2.553-.345,9.451,9.451,0,0,0-2.642.372.18.18,0,0,1-.227-.172ZM6.819,9.976a1.3,1.3,0,0,1,.006-1.833l.62-.619h0a1.3,1.3,0,0,1,1.841,0l.519.519a.174.174,0,0,1-.027.265,9.336,9.336,0,0,0-1.175,1,9.8,9.8,0,0,0-.994,1.165.185.185,0,0,1-.274.019l-.51-.51S6.821,9.979,6.819,9.976Zm8.528,14.556a8.476,8.476,0,1,1,8.485-8.481A8.475,8.475,0,0,1,15.346,24.532Zm0-14.441a5.969,5.969,0,1,0,5.979,5.969A5.978,5.978,0,0,0,15.346,10.091Zm4.211,3.776L15.6,15.915a.174.174,0,0,1-.255-.155V11.31a.181.181,0,0,1,.182-.172,4.922,4.922,0,0,1,4.1,2.485A.18.18,0,0,1,19.558,13.867Z" transform="translate(0 0)"/>
</svg>
