<svg xmlns="http://www.w3.org/2000/svg" width="24.001" height="24" viewBox="0 0 24.001 24">
  <path id="Path_1118" data-name="Path 1118" d="M12,5A2.5,2.5,0,1,0,9.5,2.5,2.5,2.5,0,0,0,12,5Zm0-4a1.5,1.5,0,1,1-1.5,1.5A1.5,1.5,0,0,1,12,1ZM24,5.5V15.6a7.453,7.453,0,0,1-2.2,5.3l-2.95,2.95a.5.5,0,1,1-.708-.707L21.1,20.2A6.456,6.456,0,0,0,23,15.6V5.5a1.5,1.5,0,0,0-3,0s0,8.036,0,8.054a2.483,2.483,0,0,1-.584,1.546l-2.639,2.746a.5.5,0,0,1-.721-.694l2.616-2.721A1.446,1.446,0,0,0,19,13.472v-.009a1.51,1.51,0,0,0-.382-.968,1.494,1.494,0,0,0-2.112-.116l-2.729,2.512a5.477,5.477,0,0,0-1.229,1.691A6.48,6.48,0,0,1,13,18.938V23.5a.5.5,0,0,1-1,0V18.938a5.517,5.517,0,0,0-1.776-4.048L7.488,12.374a1.495,1.495,0,0,0-2.107.121,1.5,1.5,0,0,0-.032,1.96L7.943,17.15a.5.5,0,1,1-.721.693L4.606,15.122A2.548,2.548,0,0,1,4,13.575C4,13.548,4,5.5,4,5.5a1.5,1.5,0,0,0-3,0V15.6a6.46,6.46,0,0,0,1.9,4.6l2.95,2.95a.5.5,0,0,1-.708.707L2.195,20.9A7.453,7.453,0,0,1,0,15.6V5.5a2.5,2.5,0,0,1,5,0v6A2.483,2.483,0,0,1,6.358,11a2.44,2.44,0,0,1,1.8.633L10.9,14.157A6.461,6.461,0,0,1,12,15.493a6.471,6.471,0,0,1,1.1-1.336l2.734-2.516A2.5,2.5,0,0,1,19,11.5v-6a2.5,2.5,0,0,1,5,0ZM8.056,9.429a3.983,3.983,0,0,1,7.888,0,.488.488,0,0,1-.5.571.5.5,0,0,1-.494-.429,2.983,2.983,0,0,0-5.908,0,.508.508,0,0,1-.566.424A.5.5,0,0,1,8.056,9.429Z" transform="translate(0.001)"/>
</svg>
