<svg xmlns="http://www.w3.org/2000/svg" width="24" height="24" viewBox="0 0 24 24">
  <path id="Path_1117" data-name="Path 1117" d="M2,12H0A11.992,11.992,0,0,1,20,3.066V0h2V5a2,2,0,0,1-2,2H15V5h4.116A9.982,9.982,0,0,0,2,12Zm20,0A9.983,9.983,0,0,1,4.883,19H9V17H4a2,2,0,0,0-2,2v5H4V20.934A11.992,11.992,0,0,0,24,12ZM17.7,9.872l-1.416.816A4.426,4.426,0,0,1,16.5,12a4.426,4.426,0,0,1-.218,1.312l1.416.816-1,1.733-1.411-.813A4.485,4.485,0,0,1,13,16.378V18H11V16.378a4.485,4.485,0,0,1-2.289-1.33L7.3,15.861l-1-1.733,1.416-.816a4.06,4.06,0,0,1,0-2.625L6.3,9.872l1-1.733,1.411.812A4.485,4.485,0,0,1,11,7.621V6h2V7.621a4.481,4.481,0,0,1,2.289,1.33L16.7,8.138l1,1.733ZM13.5,12A1.5,1.5,0,1,0,12,13.5,1.5,1.5,0,0,0,13.5,12Z"/>
</svg>
