<svg xmlns="http://www.w3.org/2000/svg" width="30" height="30" viewBox="0 0 30 30">
  <path id="Path_115" data-name="Path 115" d="M15,0A15,15,0,1,0,30,15,15.017,15.017,0,0,0,15,0ZM13.305,13.45l3.8.634A3.451,3.451,0,0,1,20,17.5a3.755,3.755,0,0,1-3.75,3.75v2.5h-2.5v-2.5A3.755,3.755,0,0,1,10,17.5h2.5a1.25,1.25,0,0,0,1.25,1.25h2.5A1.25,1.25,0,0,0,17.5,17.5a.96.96,0,0,0-.805-.95l-3.8-.634A3.451,3.451,0,0,1,10,12.5a3.755,3.755,0,0,1,3.75-3.75V6.25h2.5v2.5A3.755,3.755,0,0,1,20,12.5H17.5a1.251,1.251,0,0,0-1.25-1.25h-2.5A1.251,1.251,0,0,0,12.5,12.5.96.96,0,0,0,13.305,13.45Z"/>
</svg>
