<svg xmlns="http://www.w3.org/2000/svg" width="23.964" height="23.953" viewBox="0 0 23.964 23.953">
  <path id="Path_1119" data-name="Path 1119" d="M23.229,6.324a2.627,2.627,0,0,0,0-3.718L21.393.77a2.694,2.694,0,0,0-3.718,0l-4.4,4.4L8.118.011,1.98,6.149l4.98,4.98A7.381,7.381,0,0,0,.39,13.164l-.354.354,4.87,4.869L3.018,20.275l.707.707,1.888-1.888,4.87,4.87.354-.354a7.384,7.384,0,0,0,2.033-6.572l4.981,4.982,6.138-6.138L18.83,10.723l4.4-4.4ZM18.382,1.477a1.668,1.668,0,0,1,2.3,0l1.836,1.836a1.627,1.627,0,0,1,0,2.3L12.476,15.663a7.356,7.356,0,0,0-4.14-4.141L18.383,1.477ZM8.117,1.425l4.451,4.452L7.844,10.6,3.395,6.149,8.118,1.425Zm2.352,21.111-9-9a6.387,6.387,0,0,1,9.006,9Zm12.1-6.654L17.85,20.606,13.4,16.154l4.724-4.724,4.452,4.452Z" transform="translate(-0.036 -0.011)"/>
</svg>
