<svg id="Group_2552" data-name="Group 2552" xmlns="http://www.w3.org/2000/svg" width="44" height="45" viewBox="0 0 44 45">
  <g id="Group_2170" data-name="Group 2170" transform="translate(-1275 -586)">
    <ellipse id="Ellipse_53" data-name="Ellipse 53" cx="22" cy="22.5" rx="22" ry="22.5" transform="translate(1275 586)" fill="#fff"/>
    <path id="Path_788" data-name="Path 788" d="M22.5,9H22V8a5.006,5.006,0,0,0-5-5H13V1a1,1,0,0,0-2,0V3H7A5.006,5.006,0,0,0,2,8V9H1.5A1.5,1.5,0,0,0,0,10.5v3A1.5,1.5,0,0,0,1.5,15H2v1a5.006,5.006,0,0,0,5,5h7.7l3.963,2.642A2.149,2.149,0,0,0,22,21.854V15h.5A1.5,1.5,0,0,0,24,13.5v-3A1.5,1.5,0,0,0,22.5,9ZM20,21.855a.148.148,0,0,1-.23.123l-4.215-2.81A1,1,0,0,0,15,19H7a3,3,0,0,1-3-3V8A3,3,0,0,1,7,5H17a3,3,0,0,1,3,3ZM7,9.5A1.5,1.5,0,1,1,8.5,11,1.5,1.5,0,0,1,7,9.5Zm10,0A1.5,1.5,0,1,1,15.5,8,1.5,1.5,0,0,1,17,9.5Zm-.153,4.695a1,1,0,0,1-.315,1.378A8.739,8.739,0,0,1,12,17,8.739,8.739,0,0,1,7.47,15.573a1,1,0,0,1,1.063-1.694A6.755,6.755,0,0,0,12,15a6.758,6.758,0,0,0,3.469-1.121,1,1,0,0,1,1.378.316Z" transform="translate(1285 591)"/>
  </g>
  <text id="Chat" transform="translate(11 38)" font-size="11" font-family="SegoeUI-Semibold, Segoe UI" font-weight="600"><tspan x="0" y="0">Chat</tspan></text>
</svg>
