<svg xmlns="http://www.w3.org/2000/svg" width="47.512" height="47.543" viewBox="0 0 47.512 47.543">
  <path id="Path_530" data-name="Path 530" d="M47.508,23.749A23.756,23.756,0,1,1,23.172,0,23.767,23.767,0,0,1,47.508,23.749M43.2,20.842c-.092.173-.143.281-.2.388-.979,1.7-1.969,3.4-2.938,5.111a.644.644,0,0,1-.673.367c-1.627-.015-3.259.005-4.887-.02a.748.748,0,0,0-.75.444q-4.438,7.743-8.891,15.476c-.372.643-.729,1.291-1.137,2.015a4.821,4.821,0,0,0,.673.031c.99-.092,1.994-.133,2.974-.321a20.587,20.587,0,0,0,12.813-7.748A20.288,20.288,0,0,0,44.4,20.536a19.766,19.766,0,0,0-4.963-10.5,20.958,20.958,0,0,0-11.269-6.66,22.432,22.432,0,0,0-6.309-.395.9.9,0,0,0-.816.485q-4.82,8.386-9.676,16.751c-.1.179-.189.362-.342.643h12.64c-.158.286-.26.49-.377.689-.918,1.571-1.852,3.142-2.744,4.723a.738.738,0,0,1-.745.434c-4.978-.015-9.952-.01-14.93-.01H4.258C8.644,19.1,12.98,11.584,17.392,3.943c-.342.1-.53.143-.714.2A20.742,20.742,0,0,0,3.416,28.284C5.543,37,11.195,42.337,19.989,44.3a.58.58,0,0,0,.755-.347q4.813-8.386,9.646-16.767c.077-.138.138-.275.25-.5H23.814c1.061-1.841,2.086-3.6,3.076-5.371a.83.83,0,0,1,.847-.474c4.978.015,9.957.01,14.935.01H43.2Z" transform="translate(0.003 0.001)" fill="#fafafa" fill-rule="evenodd"/>
</svg>
