<svg xmlns="http://www.w3.org/2000/svg" width="24" height="19.5" viewBox="0 0 24 19.5">
  <path id="Logo_00000038394049246713568260000012923108920998390947_" d="M21.543,7.1c.014.211.014.423.014.636A13.915,13.915,0,0,1,7.547,21.75v0A13.936,13.936,0,0,1,0,19.539,9.879,9.879,0,0,0,7.287,17.5a4.93,4.93,0,0,1-4.6-3.42,4.926,4.926,0,0,0,2.223-.084A4.924,4.924,0,0,1,.96,9.167V9.1a4.881,4.881,0,0,0,2.235.616A4.927,4.927,0,0,1,1.67,3.148,13.982,13.982,0,0,0,11.818,8.293,4.928,4.928,0,0,1,20.209,3.8a9.873,9.873,0,0,0,3.127-1.195,4.947,4.947,0,0,1-2.165,2.724A9.891,9.891,0,0,0,24,4.555,10.008,10.008,0,0,1,21.543,7.1Z" transform="translate(0 -2.25)" fill="#fff"/>
</svg>
